# 3ds Max Wavefront OBJ Exporter v0.97b - (c)2007 guruware
# File Created: 26.11.2018 12:55:23

mtllib jigui.mtl

#
# object default
#

v  30.0000 -102.0512 -56.6844
v  30.0000 100.0000 -56.6844
v  30.0000 100.0000 39.3131
v  30.0000 -102.0512 39.3131
v  27.3679 -98.7221 39.3131
v  27.3679 98.0023 39.3131
v  -30.0000 100.0000 39.3131
v  -27.3679 98.0023 39.3131
v  -30.0000 100.0000 -56.6844
v  -30.0000 -102.0512 -56.6844
v  -30.0000 -102.0512 39.3131
v  -27.3679 -98.7221 39.3131
v  27.3679 -98.7221 -56.6844
v  27.3679 98.0023 -56.6844
v  -27.3679 98.0023 -56.6844
v  -27.3679 -98.7221 -56.6844
# 16 vertices

vn 1.0000 0.0000 -0.0000
vn 0.0000 0.0000 1.0000
vn -0.0000 0.0000 1.0000
vn 0.0000 1.0000 -0.0000
vn -1.0000 0.0000 -0.0000
vn 0.0000 -1.0000 -0.0000
vn 0.0000 0.0000 -1.0000
vn -0.0000 0.0000 -1.0000
# 8 vertex normals

vt -0.7855 0.3092 0.0000
vt -0.7855 0.9928 0.0000
vt -0.4477 0.9928 0.0000
vt -0.4477 0.3092 0.0000
vt 0.6000 0.0270 0.0000
vt 0.6126 0.0110 0.0000
vt 0.6126 0.9835 0.0000
vt 0.6000 0.9739 0.0000
vt 0.5599 0.9902 0.0000
vt 0.5599 0.7011 0.0000
vt 0.5696 0.7138 0.0000
vt 0.5696 0.9775 0.0000
vt 0.9982 0.0503 0.0000
vt 0.9701 0.0503 0.0000
vt 0.9701 0.0035 0.0000
vt 0.9982 0.0035 0.0000
vt 0.5523 0.9928 0.0000
vt 0.2145 0.9928 0.0000
vt 0.2145 0.3092 0.0000
vt 0.5523 0.3092 0.0000
vt 0.9364 0.0506 0.0000
vt 0.9364 0.0040 0.0000
vt 0.9644 0.0040 0.0000
vt 0.9644 0.0506 0.0000
vt 0.5807 0.9835 0.0000
vt 0.5807 0.0110 0.0000
vt 0.5933 0.0270 0.0000
vt 0.5933 0.9739 0.0000
vt 0.5584 0.4269 0.0000
vt 0.5744 0.4143 0.0000
vt 0.5744 0.7033 0.0000
vt 0.5584 0.6906 0.0000
vt -0.3874 0.9835 0.0000
vt -0.3874 0.0110 0.0000
vt -0.4000 0.0270 0.0000
vt -0.4000 0.9739 0.0000
vt -0.4304 0.7138 0.0000
vt -0.4401 0.7011 0.0000
vt -0.4401 0.9902 0.0000
vt -0.4304 0.9775 0.0000
vt -0.4067 0.0270 0.0000
vt -0.4193 0.0110 0.0000
vt -0.4193 0.9835 0.0000
vt -0.4067 0.9739 0.0000
vt -0.4256 0.7033 0.0000
vt -0.4256 0.4143 0.0000
vt -0.4416 0.4269 0.0000
vt -0.4416 0.6906 0.0000
# 48 texture coords

g default
usemtl lambert5SG
s off
f 1/1/1 2/2/1 3/3/1 4/4/1 
s 1
f 5/5/2 4/6/2 3/7/2 6/8/2 
f 3/9/2 7/10/3 8/11/3 6/12/2 
s off
f 2/13/4 9/14/4 7/15/4 3/16/4 
f 7/17/5 9/18/5 10/19/5 11/20/5 
f 11/21/6 10/22/6 1/23/6 4/24/6 
s 1
f 7/25/3 11/26/3 12/27/3 8/28/3 
f 12/29/3 11/30/3 4/31/2 5/32/2 
s 2
f 2/33/7 1/34/7 13/35/7 14/36/7 
f 15/37/8 9/38/8 2/39/7 14/40/7 
f 16/41/8 10/42/8 9/43/8 15/44/8 
f 1/45/7 10/46/8 16/47/8 13/48/7 
# 12 polygons

