# 3ds Max Wavefront OBJ Exporter v0.97b - (c)2007 guruware
# 创建的文件:22.05.2018 15:35:49

mtllib 双鉴探测器.mtl

#
# object Box096
#

v  -184.3759 0.0000 73.0794
v  -184.3759 0.0000 70.6309
v  -176.3759 0.0000 70.6309
v  -176.3759 0.0000 73.0794
v  -179.0425 0.0000 74.5523
v  -181.7092 0.0000 74.5523
v  -179.0425 12.0000 74.5523
v  -176.3759 12.0000 73.0794
v  -176.3759 12.0000 70.6309
v  -181.7092 12.0000 74.5523
v  -184.3759 12.0000 73.0794
v  -184.3759 12.0000 70.6309
# 12 vertices

vn 0.0000 -1.0000 -0.0000
vn 0.0000 1.0000 -0.0000
vn 0.2496 0.0000 0.9683
vn -0.2496 -0.0000 0.9683
vn 1.0000 0.0000 -0.0000
vn 0.0000 0.0000 -1.0000
vn -1.0000 0.0000 -0.0000
vn 0.4835 0.0000 0.8754
vn -0.4835 -0.0000 0.8754
vn -0.4835 0.0000 0.8754
# 10 vertex normals

vt 0.8501 0.1118 0.0000
vt 0.8501 0.8411 0.0000
vt 0.6746 0.8411 0.0000
vt 0.6746 0.1118 0.0000
vt 0.7331 0.1118 0.0000
vt 0.7916 0.1118 0.0000
vt 0.5213 0.1413 0.0000
vt 0.5213 0.8323 0.0000
vt 0.3961 0.8323 0.0000
vt 0.3961 0.1413 0.0000
vt 0.6466 0.1413 0.0000
vt 0.6466 0.8323 0.0000
vt 0.2708 0.8323 0.0000
vt 0.2708 0.1413 0.0000
# 14 texture coords

o Box096
g Box096
usemtl Material__59
s 2
f 1/1/1 2/2/1 3/3/1 
f 3/3/1 4/4/1 5/5/1 
f 3/3/1 5/5/1 6/6/1 
f 1/1/1 3/3/1 6/6/1 
s 4
f 7/6/2 8/1/2 9/2/2 
f 10/5/2 7/6/2 9/2/2 
f 11/4/2 10/5/2 9/2/2 
f 11/4/2 9/2/2 12/3/2 
s 8
f 5/7/3 7/8/3 10/9/4 
f 10/9/4 6/10/4 5/7/3 
s 16
f 4/4/5 3/1/5 9/2/5 
f 9/2/5 8/3/5 4/4/5 
s 32
f 3/4/6 2/1/6 12/2/6 
f 12/2/6 9/3/6 3/4/6 
s 64
f 2/4/7 1/1/7 11/2/7 
f 11/2/7 12/3/7 2/4/7 
s 8
f 4/11/8 8/12/8 7/8/3 
f 7/8/3 5/7/3 4/11/8 
f 11/13/9 1/14/10 6/10/4 
f 6/10/4 10/9/4 11/13/9 
# 20 faces

