# 3ds Max Wavefront OBJ Exporter v0.97b - (c)2007 guruware
# 创建的文件:06.06.2018 10:19:10

mtllib 项目\档案馆\档案盒.mtl

#
# object Box001
#

v  13.7411 17.3918 139.8655
v  13.7411 17.3918 144.5520
v  -12.2374 17.3918 144.5520
v  -12.2374 17.3918 139.8655
v  13.7411 52.0298 139.8655
v  -12.2374 52.0298 139.8655
v  -12.2374 52.0298 144.5520
v  13.7411 52.0298 144.5520
# 8 vertices

vn 0.0000 -1.0000 -0.0000
vn 0.0000 1.0000 -0.0000
vn 0.0000 0.0000 1.0000
vn 1.0000 0.0000 -0.0000
vn 0.0000 0.0000 -1.0000
vn -1.0000 0.0000 -0.0000
# 6 vertex normals

vt 0.1526 0.9860 0.0000
vt 0.0160 0.9860 0.0000
vt 0.0160 0.0169 0.0000
vt 0.1526 0.0169 0.0000
vt 0.4478 0.9979 0.0000
vt 0.0006 0.9979 0.0000
vt 0.0006 0.0031 0.0000
vt 0.4478 0.0031 0.0000
vt 0.5532 0.9990 0.0000
vt 0.4467 0.9990 0.0000
vt 0.4467 0.0019 0.0000
vt 0.5532 0.0019 0.0000
vt 0.9992 0.9950 0.0000
vt 0.5432 0.9950 0.0000
vt 0.5432 0.0026 0.0000
vt 0.9992 0.0026 0.0000
vt 0.9458 0.9945 0.0000
vt 0.9986 0.9945 0.0000
vt 0.9986 0.0020 0.0000
vt 0.9458 0.0020 0.0000
# 20 texture coords

o Box001
g Box001
usemtl Material__25
s 2
f 1/1/1 2/2/1 3/3/1 
f 3/3/1 4/4/1 1/1/1 
s 4
f 5/4/2 6/1/2 7/2/2 
f 7/2/2 8/3/2 5/4/2 
s 8
f 8/5/3 7/6/3 3/7/3 
f 3/7/3 2/8/3 8/5/3 
s 16
f 5/9/4 8/10/4 2/11/4 
f 2/11/4 1/12/4 5/9/4 
s 32
f 6/13/5 5/14/5 1/15/5 
f 1/15/5 4/16/5 6/13/5 
s 64
f 7/17/6 6/18/6 4/19/6 
f 4/19/6 3/20/6 7/17/6 
# 12 faces

